#tb 0: 3/50
#media_type 0: video
#codec_id 0: rawvideo
#dimensions 0: 116x135
#sar 0: 0/1
0,          0,          0,        1,    62640, 0x31eb581d
0,          3,          3,        1,    62640, 0x29e11b82
0,          6,          6,        1,    62640, 0x207ed588
0,          9,          9,        1,    62640, 0x3845c906
0,         12,         12,        1,    62640, 0x6797fe69
0,         15,         15,        1,    62640, 0x1f086a09
